<mxfile host="app.diagrams.net" modified="2024-07-13T22:45:37.709Z" agent="Mozilla/5.0 (X11; Linux x86_64) AppleWebKit/537.36 (KHTML, like Gecko) Chrome/125.0.0.0 Safari/537.36" version="24.6.5" etag="STqoj2TIws8NHmu9Y1Mw" type="github">
  <diagram name="Page-1" id="JpoXEmjwx3s81L33Zo7t">
    <mxGraphModel>
      <root>
        <mxCell id="0" />
        <mxCell id="1" parent="0" />
      </root>
    </mxGraphModel>
  </diagram>
</mxfile>
